<?xml version="1.0" encoding="utf-8"?>
<!-- Generator: Adobe Illustrator 25.0.1, SVG Export Plug-In . SVG Version: 6.00 Build 0)  -->
<svg version="1.1" id="Capa_1" xmlns="http://www.w3.org/2000/svg" xmlns:xlink="http://www.w3.org/1999/xlink" x="0px" y="0px"
	 viewBox="0 0 154.7 154.7" style="enable-background:new 0 0 154.7 154.7;" xml:space="preserve">
<style type="text/css">
	.st0{fill:#FFCC00;}
</style>
<path class="st0" d="M138.7,32H16C7.2,32,0,24.8,0,16v0C0,7.2,7.2,0,16,0h122.7c8.8,0,16,7.2,16,16v0C154.7,24.8,147.5,32,138.7,32z
	"/>
<path class="st0" d="M138.7,93.3H16c-8.8,0-16-7.2-16-16v0c0-8.8,7.2-16,16-16h122.7c8.8,0,16,7.2,16,16v0
	C154.7,86.2,147.5,93.3,138.7,93.3z"/>
<path class="st0" d="M138.7,154.7H16c-8.8,0-16-7.2-16-16v0c0-8.8,7.2-16,16-16h122.7c8.8,0,16,7.2,16,16v0
	C154.7,147.5,147.5,154.7,138.7,154.7z"/>
</svg>
