<svg xmlns="http://www.w3.org/2000/svg" xmlns:xlink="http://www.w3.org/1999/xlink" viewBox="0 0 134.22 129"><defs><style>.cls-1{fill:none;}.cls-2{fill:#ffcf00;}.cls-3{fill:#1f181a;}.cls-4{fill:#af8b0e;}.cls-5{fill:#fff;}.cls-6{clip-path:url(#clip-path);}.cls-7{fill:#b4b3b3;}.cls-8{fill:#6c5615;}</style><clipPath id="clip-path"><path class="cls-1" d="M49.77,55.59a15.83,15.83,0,0,1,5.49.25,14.91,14.91,0,0,1,6.34,3c.76.63,1.45,1.34,2.22,2a9,9,0,0,0,6.36,2A9.26,9.26,0,0,0,76.26,60a15.4,15.4,0,0,1,7.22-4.09,15.92,15.92,0,0,1,11.1,1.27A27.83,27.83,0,0,0,97,45.83C97,30.44,79.4,10.58,64,10.58s-30.22,12.64-30.22,28c0,4.21,8.41,15.43,10.09,19a9.84,9.84,0,0,1,1-.53A15.48,15.48,0,0,1,49.77,55.59Z"/></clipPath></defs><title>Recurso 2</title><g id="Capa_2" data-name="Capa 2"><g id="Capa_1-2" data-name="Capa 1"><rect class="cls-2" width="134.22" height="129"/><path class="cls-3" d="M24.06,100.9v2.37h5.29V106H24.06v4.09H20.54V98.19h9.21v2.71Z"/><path class="cls-3" d="M52.47,98.19c3.06,0,4.83,1.53,4.83,4.22s-1.77,4.46-4.83,4.46H50.6v3.2H47.08V98.19Zm-1.87,6h1.7a1.63,1.63,0,1,0,0-3.25H50.6Z"/><path class="cls-3" d="M72.61,104.12a6.13,6.13,0,0,1-6.47,6.1c-3.73,0-6.47-2.59-6.47-6.1s2.74-6,6.47-6S72.61,100.65,72.61,104.12Zm-9.34,0a3,3,0,0,0,2.92,3.13A2.94,2.94,0,0,0,69,104.14a2.91,2.91,0,0,0-2.81-3.1A3,3,0,0,0,63.27,104.14Z"/><path class="cls-3" d="M85.47,99.41l-1.31,2.71a9.94,9.94,0,0,0-4-1.32c-.59,0-1,.2-1,.64,0,1.75,6.2.72,6.2,5,0,2.53-2.23,3.73-4.89,3.73a9.67,9.67,0,0,1-5.71-1.88l1.32-2.68a8.05,8.05,0,0,0,4.42,1.81c.74,0,1.22-.25,1.22-.79,0-1.8-6.2-.66-6.2-4.85,0-2.28,2-3.74,4.91-3.74A9.6,9.6,0,0,1,85.47,99.41Z"/><path class="cls-3" d="M113.69,100.19l-2,2.41a3.85,3.85,0,0,0-2.83-1.58,3.07,3.07,0,0,0,0,6.12,4.29,4.29,0,0,0,2.83-1.38l2,2.17a7.19,7.19,0,0,1-5,2.29,6.07,6.07,0,1,1,.12-12.13A7,7,0,0,1,113.69,100.19Z"/><path class="cls-3" d="M35.27,108.17l-.71,1.9H30.94L36,98.19h3.63l4.89,11.88H40.76l-.69-1.9Zm2.44-6.45-1.45,3.87h2.88Z"/><path class="cls-3" d="M34.56,110.07s.65-1.9,6.59-2.06l-1.58-.74L33,107Z"/><path class="cls-3" d="M91.56,108.17l-.71,1.9H87.23l5.06-11.88h3.63l4.89,11.88H97.05l-.69-1.9ZM94,101.72l-1.46,3.87h2.89Z"/><path class="cls-3" d="M90.85,110.07s.65-1.9,6.58-2.06l-1.57-.74L89.32,107Z"/><path class="cls-4" d="M49.77,55.59a15.83,15.83,0,0,1,5.49.25,14.91,14.91,0,0,1,6.34,3c.76.63,1.45,1.34,2.22,2a9,9,0,0,0,6.36,2A9.26,9.26,0,0,0,76.26,60a15.4,15.4,0,0,1,7.22-4.09,15.92,15.92,0,0,1,11.1,1.27,27.87,27.87,0,1,0-50.7.42,9.84,9.84,0,0,1,1-.53A15.48,15.48,0,0,1,49.77,55.59Z"/><path class="cls-5" d="M90.57,75.79a15.72,15.72,0,0,0-7.09.14A15.35,15.35,0,0,0,76.26,80a9.28,9.28,0,0,1-6.08,2.8,9,9,0,0,1-6.36-2c-.77-.61-1.46-1.32-2.22-2a15,15,0,0,0-6.34-3,15.84,15.84,0,0,0-5.49-.25,15.19,15.19,0,0,0-7.62,3.22,31,31,0,0,0,3.58,5.32A9,9,0,0,1,49,82.29a9.27,9.27,0,0,1,7.36.68,14.1,14.1,0,0,1,2.74,2.19,15.37,15.37,0,0,0,7.37,3.73,15.68,15.68,0,0,0,7.9-.41,15.39,15.39,0,0,0,6.29-3.79,9.21,9.21,0,0,1,7.21-2.83,9,9,0,0,1,5.6,2.26A31.6,31.6,0,0,0,97,78.8,14.88,14.88,0,0,0,90.57,75.79Z"/><path class="cls-5" d="M98.12,66a14.46,14.46,0,0,0-3.54-2.58,15.92,15.92,0,0,0-11.1-1.27,15.4,15.4,0,0,0-7.22,4.09,9.22,9.22,0,0,1-6.08,2.81,9.1,9.1,0,0,1-6.36-2c-.77-.61-1.46-1.32-2.22-2a14.91,14.91,0,0,0-6.34-3,15.59,15.59,0,0,0-5.49-.24,15.22,15.22,0,0,0-4.93,1.49c-.34.16-.65.35-1,.53a18.65,18.65,0,0,0-3.44,2.69,8.59,8.59,0,0,1-1.72,1.29,30.64,30.64,0,0,0,1.44,6.38,14.76,14.76,0,0,0,4.72-3.08,12.46,12.46,0,0,1,2.36-1.83A8.38,8.38,0,0,1,49,68.51a9.29,9.29,0,0,1,7.35.69,13.74,13.74,0,0,1,2.75,2.18,15.34,15.34,0,0,0,7.36,3.73,15.72,15.72,0,0,0,7.91-.41,15.31,15.31,0,0,0,6.28-3.79,9.21,9.21,0,0,1,7.21-2.83,9.1,9.1,0,0,1,3.48.86,9.71,9.71,0,0,1,2.5,1.74,18.65,18.65,0,0,0,3.38,2.62,15.32,15.32,0,0,0,1.81.91,31,31,0,0,0,1.44-6.4A11.5,11.5,0,0,1,98.12,66Z"/><g class="cls-6"><polygon class="cls-5" points="88.34 51.68 78.76 32.87 78.76 48.33 88.34 58.7 88.34 51.68"/><polygon class="cls-7" points="78.72 32.79 70.73 32.79 68.69 37.43 78.76 48.33 78.76 32.87 78.72 32.79"/><path class="cls-8" d="M44.19,30.71S40,22.77,45.68,20.12s19.89,3.8,27.22,14.39S88.85,58.6,88.85,58.6v3Z"/><path class="cls-7" d="M55.73,61.59l2.17,1.9,2.58-2.71L50,25.28l-4.41-1s-2.78,1.22-2.17,5.57,4.95,2.47,9.91,19.75C53.29,49.58,54.51,54.53,55.73,61.59Z"/><path class="cls-5" d="M57.26,24.57a.61.61,0,0,1-.31-.09c-4.64-3-11.23-1.84-11.3-1.83a.58.58,0,1,1-.2-1.14c.28-.05,7.11-1.22,12.13,2a.58.58,0,0,1,.17.79A.59.59,0,0,1,57.26,24.57Z"/><path class="cls-5" d="M69.12,32.79a.58.58,0,0,1-.4-.17,65.86,65.86,0,0,0-8.84-7,.57.57,0,0,1-.17-.8.56.56,0,0,1,.79-.17,67.15,67.15,0,0,1,9,7.12.57.57,0,0,1,0,.82A.58.58,0,0,1,69.12,32.79Z"/><path class="cls-5" d="M45.55,24.26s20.7-4.54,43.3,36.58v2.65H57.9A110.29,110.29,0,0,0,45.55,24.26Z"/></g></g></g></svg>